<svg width="19" height="22" viewBox="0 0 19 22" fill="none" xmlns="http://www.w3.org/2000/svg">
<path d="M7.54534 1.32463L6.87781 8H3.87781C3.87781 8 3.1278 8.75 3.1278 11C3.1278 13.25 3.87781 14 3.87781 14H6.87781L7.54534 20.6754C7.58949 21.1169 7.24278 21.5 6.79906 21.5H3.92235C2.56801 21.5 1.38303 20.5937 1.09216 19.2709C0.617768 17.1137 0 13.7722 0 11C0 8.2278 0.617768 4.88634 1.09216 2.72907C1.38303 1.40634 2.56801 0.5 3.92235 0.5H6.79906C7.24278 0.5 7.58949 0.883113 7.54534 1.32463Z" fill="#B6A67E"/>
<path fill-rule="evenodd" clip-rule="evenodd" d="M10 14C11.3807 14 12.5 12.8807 12.5 11.5C12.5 10.1193 11.3807 9 10 9C8.61929 9 7.5 10.1193 7.5 11.5C7.5 12.8807 8.61929 14 10 14ZM10 12.5C10.5523 12.5 11 12.0523 11 11.5C11 10.9477 10.5523 10.5 10 10.5C9.44772 10.5 9 10.9477 9 11.5C9 12.0523 9.44772 12.5 10 12.5Z" fill="#B6A67E"/>
<path fill-rule="evenodd" clip-rule="evenodd" d="M16.8001 9.08141C16.3582 8.63953 15.6418 8.63953 15.1999 9.0814L13.5814 10.6999C13.1395 11.1418 13.1395 11.8582 13.5814 12.3001L15.1999 13.9186C15.6418 14.3605 16.3582 14.3605 16.8001 13.9186L18.4186 12.3001C18.8605 11.8582 18.8605 11.1418 18.4186 10.6999L16.8001 9.08141ZM14.9026 11.5L16 10.4026L17.0974 11.5L16 12.5974L14.9026 11.5Z" fill="#B6A67E"/>
</svg>
